<?xml version="1.0" encoding="UTF-8"?>
<!DOCTYPE svg PUBLIC "-//W3C//DTD SVG 1.1//EN" "http://www.w3.org/Graphics/SVG/1.1/DTD/svg11.dtd">
<!-- Creator: CorelDRAW 2020 (64-Bit Оценочная версия) -->
<svg xmlns="http://www.w3.org/2000/svg" xml:space="preserve" width="297mm" height="210mm" version="1.1" style="shape-rendering:geometricPrecision; text-rendering:geometricPrecision; image-rendering:optimizeQuality; fill-rule:evenodd; clip-rule:evenodd"
viewBox="0 0 29700 21000"
 xmlns:xlink="http://www.w3.org/1999/xlink"
 xmlns:xodm="http://www.corel.com/coreldraw/odm/2003">
 <defs>
  <style type="text/css">
   <![CDATA[
    .fil1 {fill:none}
    .fil0 {fill:#2B2A29}
   ]]>
  </style>
 </defs>
 <g id="Слой_x0020_1">
  <metadata id="CorelCorpID_0Corel-Layer"/>
  <g id="_2495364802544">
   <path class="fil0" d="M5749.98 11650.62c-298.1,487.5 -813.8,1810.6 -695.03,2413.87 2.93,14.92 12.55,58.53 27.31,73.92 324.25,-16.07 3060.07,-3880.23 3275.41,-4209.96 758.93,-1162.09 1375.66,-2327.25 2095.74,-3486.24 20.64,-33.22 200.71,-421.95 317.77,-227.43 62.87,104.46 -491.54,959.99 -548.85,1092.52 -200.14,462.82 -1293.73,3547.1 -1384.57,4324.92 474.52,-561.77 1710.3,-2376.49 1996.57,-2874.83 245.95,-428.15 558.62,-1064.54 760.99,-1659 80.31,-372.21 153.72,-709.99 200.17,-843.94 -0.64,3.27 -0.92,6.45 -0.93,9.57l0.96 -9.65c8.16,-23.55 15.52,-41 21.91,-51l157.4 20.57c6.97,27.57 12.25,33.86 7.9,58.37 -26.95,151.96 -59.09,301.42 -95.94,448.59 -113.26,572.9 -227.12,1241.45 -387.52,1696.62 -156.86,445.14 -962.68,2606.63 -984.67,3131.71 1286.54,-740.61 2658.21,-2304.78 2718.94,-3846.91 106.9,-2715.04 -2593.71,-3257.79 -4726.98,-3017.15 -2909.44,328.19 -5018.88,1505.61 -5677.3,4595.3 -505.52,2372.18 138.85,5771.72 2938.84,6223.41 1556.41,251.08 4007.88,-688.69 5170.87,-1720.01 1258.33,-1115.87 1659.19,-2415.64 2691.1,-3611.87 33.67,-41.23 94.38,-47.36 135.61,-13.69 41.23,33.67 47.36,94.38 13.69,135.61 -346.33,523.13 -652.7,1008.35 -982.39,1541.17 -1415.68,2287.97 -2686.11,3255.13 -5334.75,3839.55 -2667.65,588.62 -4497.23,-989.58 -4955.98,-3627.84 -504.06,-2898.89 784.31,-6102.25 3702.12,-7126.76 1735.95,-609.53 4649.26,-942.54 6203.1,301.53 1709.79,1368.93 1186.12,3616.97 -66.79,5067.32 -231.59,268.09 -1648.66,1616.89 -1938.71,1511.47 -434.59,-157.96 746.21,-3083.29 885.09,-3459.02 12.29,-33.25 25.29,-73.39 38.85,-119.16 -540.63,1109.84 -1298.77,2113.43 -2020.68,3130.98 -55.26,77.89 -397.02,709.14 -613.68,581.23 -357.96,-211.33 688.14,-3008.43 1040.71,-3931.1 -1072.62,1831.81 -2048.41,3303.75 -3420.49,5038.38 -125.13,158.2 -1387.91,2036.33 -1474.28,962.71 -60.08,-746.78 378.63,-1894.19 756.27,-2502.14 38.21,-42.03 103.27,-45.13 145.3,-6.92 42.03,38.21 45.13,103.27 6.92,145.3zm6045.54 -5396.25l0.01 -0.14 -0.04 0.22 0.03 -0.08z"/>
  </g>
  <path class="fil1" d="M5673.87 11581.43c-468.96,515.86 -1306.05,3731.57 -143.92,2292.52 2017.44,-2498.18 2919.82,-3759.51 4467.29,-6487.08 488.85,-861.65 1170.43,-1914.01 194.23,-240.52 -204.05,349.81 -2166.59,5847.32 -1209.66,4485.41 1269.76,-1807.14 2453.46,-3133.42 2888.29,-5266.36 123.04,-603.53 -378.48,1705.39 -407.57,1834.62 -20.99,93.23 -1450.13,3799.32 -954.05,3490.1 1471.35,-917.11 2777.72,-2335.93 2855.06,-3971.65 94.75,-2003.67 -1611.56,-4079.29 -6586.25,-2828.16 -2906.81,731.06 -4304.06,3293.13 -4237.98,6234.8 53.87,2397.84 1560.27,5203.27 4893.12,4430.94 1404.6,-325.49 2875.23,-825.89 4045.1,-2110.92 1033.89,-1135.68 1445.72,-2245.21 2227.19,-3202.17"/>
  <g id="_2495364796064">
   <path class="fil0" d="M13455.66 10436.97c112.95,-156.6 220.77,-303.91 323.76,-443.74 -15.7,-15.14 -18.31,-39.9 -5.19,-58.11 83.8,-183.15 137.58,-300.45 226.8,-395.11 341.98,-1647.41 1036.72,-3670.04 1508.84,-4108.31 160.88,-149.34 475.01,-140.73 471.38,28.86 -32.71,1528.84 -648.1,2664.89 -1432.43,3785.83 1054.03,-295.79 1274.36,1204.82 619.82,2059.19 -247.71,323.34 -1072.44,885.02 -1304.6,316.73 -106.04,-259.59 -82.13,-803.52 23.47,-1467.55 -94.78,127.85 -190.29,256.76 -285.95,387.31 -29.02,40.29 -85.21,49.42 -125.5,20.4 -40.29,-29.02 -49.42,-85.21 -20.4,-125.5zm817.18 -1112.65c848.63,-1162.01 1276.14,-1895.22 1515.03,-3815.35 -502.77,-122.31 -1235.29,2644.05 -1515.03,3815.35zm-102.31 447.66l-4.64 22.37c-47.1,230.98 -534.59,2112.9 241.88,1815.91 1325.98,-507.17 1135.2,-2850.1 -144.7,-1964.65 -30.68,42.08 -61.55,84.19 -92.54,126.37z"/>
  </g>
  <path class="fil1" d="M13528.61 10489.52c1391.58,-1931.75 2156.59,-2663.91 2359.94,-5036.9 -798.06,-546 -2041.02,4790.73 -2007.71,5635.69 10.72,271.92 11.65,821.25 563.56,624.96 1418.63,-504.55 1295.11,-3187.84 -304.92,-2139.55 -93.26,61.1 -258.58,289.59 -329.09,387.45"/>
  <g id="_2495364797120">
   <path class="fil0" d="M15913.27 10457.39c372.56,-183.61 1550.58,-800.67 1132.29,-1165.93 -297.58,-259.85 -767.92,134.06 -920.42,418.95 -114.96,214.77 -189.11,485.75 -211.87,746.98zm-6.51 221.26c21.14,685.09 451.23,1154.66 1510.74,52.93 323.22,-336.1 789.84,-728.31 1007.72,-1170.87 25.3,-69.37 41.52,-112.96 44.3,-121.12l7.46 2.32c9.3,-24.58 17.77,-49.31 25.32,-74.19 11.36,-37.42 29.34,-47.35 59.13,-65.18l95.54 164.76 46.61 -69.7c-4.29,31.84 -13.46,66.75 -26.68,104.08l5.6 9.66 -40.29 118.66c215.86,-292.63 504.86,-543.49 849.88,-482.12 205.5,36.56 254.96,354.38 221.65,754.68 274.63,-349.47 710.36,-716.09 1176.48,-689.59 69.3,3.94 108.61,46.11 114.19,114.19 75.06,916.46 -297.05,1269.04 -368.23,1960.13l-7.71 199.22c254.43,-22.36 243.81,-53.61 515.13,-276.05 29.81,-35.14 82.46,-39.47 117.6,-9.66 35.14,29.81 39.47,82.46 9.66,117.6 -216.09,312.24 -337.43,451.83 -768.09,418.92 -279.53,-21.36 -41.43,-813.8 11.5,-973.66 213.7,-645.47 229.63,-661.36 256.47,-1306.02 -490.89,92.17 -871.21,488.4 -1133.68,960.3 -131.22,644.18 -379.11,1292.35 -505.33,1297.21 -276.65,10.64 -42.3,-619.01 198.96,-1127.25 146.95,-572.3 265.09,-1195.33 122.64,-1218.24 -597.54,-96.12 -1111.75,1263.91 -1222.15,1654.69 -16.22,57.39 -101.55,649.79 -198.81,705.9 -345.29,199.16 -89.49,-739.24 151.78,-1475.14 -349.34,423.49 -776.14,844.83 -951.9,991.51 -1381.22,1152.63 -1920.99,-522.31 -1317.11,-1648.41 255.83,-477.08 980.33,-897.38 1353.76,-423.35 517.09,656.37 -977.69,1333.11 -1362.14,1503.79z"/>
  </g>
  <path class="fil1" d="M15853.33 10595.19c2995.62,-1224.18 242.29,-2526.89 -38.25,-246.56 -163.57,1329.55 754.05,1561.22 1690.71,457.9 247.5,-291.54 1094.93,-1064.89 1094.93,-1408.93 10.84,-4.48 -648.12,1825.76 -634.01,2183.83 10.22,259.31 83.86,-515.46 281.78,-960.08 203.17,-456.4 517.11,-1356.18 1197.59,-1364.64 595.33,-7.4 -575.91,3307.48 -272.73,2066.08 185.32,-758.81 792.14,-1995.63 1716.87,-1995.63 0,1404.77 -387.45,1240.62 -387.45,2289.5 370.08,0 449.5,-51.63 704.46,-352.23"/>
 </g>
</svg>
