<?xml version="1.0" encoding="UTF-8"?>
<!DOCTYPE svg PUBLIC "-//W3C//DTD SVG 1.1//EN" "http://www.w3.org/Graphics/SVG/1.1/DTD/svg11.dtd">
<!-- Creator: CorelDRAW 2020 (64-Bit Оценочная версия) -->
<svg xmlns="http://www.w3.org/2000/svg" xml:space="preserve" width="297mm" height="210mm" version="1.1" style="shape-rendering:geometricPrecision; text-rendering:geometricPrecision; image-rendering:optimizeQuality; fill-rule:evenodd; clip-rule:evenodd"
viewBox="0 0 29700 21000"
 xmlns:xlink="http://www.w3.org/1999/xlink"
 xmlns:xodm="http://www.corel.com/coreldraw/odm/2003">
 <defs>
  <style type="text/css">
   <![CDATA[
    .fil1 {fill:none}
    .fil2 {fill:#2B2A29}
    .fil0 {fill:#2B2A29}
   ]]>
  </style>
 </defs>
 <g id="Слой_x0020_1">
  <metadata id="CorelCorpID_0Corel-Layer"/>
  <g id="_2459335244144">
   <path class="fil0" d="M6306.87 9851.86l388.91 -388.91 17.9 -13.23 -36.09 36.08c-247.71,359.67 -669.1,3085.46 936.01,1644.63 165.19,-180.29 346.65,-395.13 545.79,-648.74 487.76,-621.14 1596.43,-1925.61 1937.82,-2887.01 61.8,-257.05 102.09,-440.73 102.09,-503.45l388.9 -388.91c0,150.76 -37.27,320.94 -102.08,503.45 -293,1218.62 -1072.55,4096.14 -370.25,3664.93 641.55,-766.04 1510.26,-1694.88 1878.83,-2736.13 56.11,-474.32 132.14,-1068.58 163.1,-1099.55l388.91 -388.91c8.83,-8.82 13.99,28.12 13.99,126.65 0.01,333.5 -65.8,658.11 -177.05,972.51 -37.16,314.09 -65.62,575.72 -66.49,586.36 -23.54,288.05 -402.82,2107.96 -383.37,2395.56 58.98,-62.65 117.68,-122.76 175.85,-180.94l388.91 -388.91c109.19,-109.18 216.57,-211.6 320.71,-311.5 485.97,-524.93 831.9,-1133.07 831.9,-2428.56 0,-2317.2 -4326.58,-3006.24 -6090.57,-2395.17 -916.06,317.35 -1625.54,708.73 -2181.02,1200.89 -740.15,836.36 -1147.72,1926.49 -1413.3,3367.6 -216.56,1175.12 438.45,4226.76 2263.33,4226.76 3063.62,0.01 4732.15,-863.76 7073.8,-2700.08 126.28,-99.03 257.7,-212.9 392.5,-339.24 198.72,-210.39 400.96,-441.65 601.65,-686.99 62.45,-258.93 124.64,-471.72 151.65,-543.28 449.68,-1191.27 1245.76,-4630.22 1770.23,-5203.94l71.41 -74.88 388.9 -388.9c985.73,-985.73 309.59,1795.01 248.62,2003.08 -254.42,868.3 -908.11,2022.7 -1660.66,3062.9 1137.69,-838.3 972.62,951.38 166.64,1757.36l-388.91 388.91c-219.93,219.93 -487.56,366.59 -789.45,366.59 -223.11,0 -109.59,-716.22 20.27,-1277.63 -130.48,145.19 -260.16,282.54 -387.65,410.03l-388.91 388.91c-202.46,202.46 -399.39,380.27 -585.2,525.98 -2341.65,1836.33 -4010.18,2700.1 -7073.79,2700.09 -1824.89,0 -2479.9,-3051.64 -2263.34,-4226.76 287.23,-1558.57 740.5,-2706.66 1600.97,-3567.14l388.91 -388.91c582.53,-582.52 1351.67,-1033.24 2382.26,-1390.25 1763.98,-611.08 6090.57,77.96 6090.57,2395.16 0,1436.34 -425.22,2027.75 -995.07,2597.6l-388.91 388.91c-105.9,105.9 -216.79,211.05 -330.87,320.73 -119.5,126.84 -240.21,264.18 -360.29,417.36l-5.41 6.18 -388.9 388.91c-141.89,141.88 331.25,-2104.73 357.63,-2427.52 0.25,-3.09 2.85,-27.43 7.27,-67.83 -440.32,707.09 -1030.62,1346.27 -1488.21,1897.98 -58.57,70.62 -112.24,130.08 -161.3,179.14l-386.6 386.6 -2.3 2.31c-844.2,844.19 -323.82,-1392.42 39.27,-2869.06 -465.21,715.3 -1063.85,1430.2 -1388.08,1843.1 -284.12,361.82 -532.25,644.76 -748.49,861l-388.91 388.91c-1866.87,1866.87 -1356.42,-1238.44 -1104.03,-1490.83zm8691.69 -544.23c-12.49,34.57 -25.83,70.24 -42.7,106.86l-190.8 190.79c-26.18,32.55 -52.39,64.87 -78.62,96.94 -137.8,571.43 -276.79,1367.76 -41.55,1367.76 214.59,0 411.86,-74.12 586.99,-195.96 595.39,-808.28 680.82,-2118.45 -159.2,-1663.94 -24.63,32.68 -49.35,65.19 -74.12,97.55zm-243.04 124.97l188.43 -188.43c724.94,-1016.14 1348.45,-2128.99 1595.5,-2972.13 55.83,-190.52 627.18,-2537.55 -33.58,-2175.35 -521.18,857.44 -1246.48,3946.14 -1667.76,5062.18 -16.75,44.4 -47.07,143.26 -82.59,273.73z"/>
  </g>
  <path class="fil1" d="M6519.22 9644.17c-271.68,124.51 -962.03,4204.44 1834.62,643.07 580.35,-739.06 2039.91,-2445.57 2039.91,-3390.47 0,396.76 -1606.48,5615.4 -140.89,3848.37 835.53,-1007.38 2113.39,-2306.39 2113.39,-3777.93 0,-673.03 -240.99,1527.58 -243.55,1558.87 -26.69,326.7 -510.98,2623.83 -352.23,2421.34 1015.49,-1295.31 2075.14,-1457.18 2075.14,-3724.59 0,-2317.2 -4326.58,-3006.25 -6090.56,-2395.17 -2552.96,884.41 -3501.56,2343.71 -3983.23,4957.4 -216.56,1175.11 438.44,4226.76 2263.33,4226.76 3063.62,0 4732.14,-863.76 7073.8,-2700.09 1302.77,-1021.64 3152.42,-3621.48 3624.95,-5234.15 62.39,-212.9 768.86,-3119.37 -320.02,-1928.21 -524.47,573.73 -1320.54,4012.67 -1770.22,5203.95 -86.62,229.49 -535.08,1911.11 -193.22,1911.11 1439.82,0 2100.49,-3336.14 522.31,-2045.96 -132.49,108.32 -142.69,241.44 -211.34,390.47"/>
  <g id="_2459335243808">
   <path class="fil2" d="M16576.12 10189.4c89.71,-81.03 472.93,-326.64 800.32,-599.33 211.48,-286.93 169.82,-530.57 -555.2,-561.58 -24.29,-1.03 -49.21,2.72 -74.6,10.85 -252.84,402.52 -464.49,1022.16 -463.45,1442.99l292.93 -292.93zm3248.93 1192.23l-9.85 6.8 20.55 -20.56c104.86,-160.59 306.26,-1184.17 375.95,-1353.14 285.53,-692.25 151.44,-1135.72 -227.24,-900.55 -74.41,98.04 -153.01,213.46 -235.24,347.61 -1.18,1.94 -2.38,4.05 -3.57,6.05 -27.07,198.08 -72.69,437.78 -140.35,724.58 -137.4,582.39 -210.56,818.32 -237.79,845.56l-388.91 388.91c-68.94,68.94 156.18,-1198.6 378.21,-1570.25 97.05,-709.7 -44.58,-883.56 -269.72,-760.17 -124.49,168.14 -249.91,373.64 -361.06,593.11 -155.76,637.25 -358.5,1384.41 -403.74,1429.65l-388.91 388.91c-21,21 -8.06,-109.25 59.28,-471.93 56.13,-302.33 185.74,-644.28 344.47,-957.7 51.34,-210.06 97.58,-408.19 131.38,-565.27 -42.76,47.02 -87.04,93.1 -132.32,138.37l-388.91 388.91c-200.13,200.13 -419.39,384.52 -609.77,563.96 -2140.32,2017.14 -1448.65,-767.67 -778.92,-1437.4l388.91 -388.91c90.27,-90.27 180.15,-142.11 262.65,-138.59 874.46,37.41 754.85,384.11 395.94,743.02l-388.91 388.91c-286.95,286.95 -726.86,581.71 -933.99,732.44 10.68,528.08 372.74,720.5 1443.23,-288.38 122.73,-115.68 257.47,-233.41 391.34,-356.09 181.98,-207.22 331.7,-432.8 403.23,-687.08l388.91 -388.91c19.55,0.01 -27.39,238.81 -102.34,563.67 32.94,-38.71 65.5,-74.28 97.37,-106.15l388.91 -388.91c300.08,-300.08 539.28,-276.55 471.25,449.09 11.32,-11.95 22.5,-23.47 33.54,-34.51l388.91 -388.91c515.03,-515.04 741.34,-47.81 413.07,748.06 -72.14,174.91 -285.43,1265.67 -386.65,1366.9l-388.91 388.9z"/>
  </g>
  <path class="fil1" d="M16381.67 10383.85c228.11,-206.04 2354.05,-1476.24 634.02,-1549.81 -694.45,-29.7 -1912.55,3865.03 516.27,1575.98 433.97,-409 1017.97,-843.74 1183.49,-1432.07 75.95,0 -851.11,3602.32 -528.34,1863.8 247.91,-1335.31 1928.81,-3443.41 1223.74,-454.88 -486.95,2064 -166.96,-223.44 143.92,-730.63 804.75,-1312.94 1262.07,-831.64 851.39,164.04 -74.58,180.81 -299.98,1340.28 -396.51,1373.7"/>
 </g>
</svg>
