<svg width="20757" height="14203" xmlns="http://www.w3.org/2000/svg" stroke="null" style="vector-effect: non-scaling-stroke;">
 <defs stroke="null" style="vector-effect: non-scaling-stroke;">
  <style stroke="null" style="vector-effect: non-scaling-stroke;" type="text/css">
   <![CDATA[
    .fil1 {fill:none}
    .fil2 {fill:#2B2A29}
    .fil0 {fill:#2B2A29}
   ]]>
  </style>
 </defs>
 <g stroke="null">
  <title stroke="null">background</title>
  <rect stroke="null" fill="none" id="canvas_background" height="14205" width="20759" y="-1" x="-1"/>
 </g>
 <g stroke="null">
  <title stroke="null">Layer 1</title>
  <g stroke="null" transform="translate(20737.091796875,14123.26171875) scale(1.177829623222351) translate(-20737.091796875,-14123.26171875) " id="Слой_x0020_1">
   <metadata stroke="null" transform="translate(4.547473508864641e-13,0) translate(4.547473508864641e-13,0) translate(0,-10.001068115234375) translate(0,-10.001068115234375) translate(0,-10.001068115234375) translate(0,-10.001068115234375) translate(-10.001068115234375,0) translate(-10.001068115234375,0) translate(-10.001068115234375,0) translate(-10.001068115234375,0) translate(0,-20.00213623046875) translate(20.00213623046875,-20.00213623046875) translate(1,1) translate(0,-1) translate(2,-2) translate(0,2) translate(0,-1) translate(0,-2) translate(20757.09375,14203.26953125) scale(1.0018982887268066) translate(-20757.09375,-14203.26953125) translate(20697.80078125,14096.5029296875) scale(1.00094735622406) translate(-20697.80078125,-14096.5029296875) translate(20678.2109375,14083.1611328125) scale(1.0005792379379272) translate(-20678.2109375,-14083.1611328125) translate(20666.240234375,14075.0078125) scale(1.001891851425171) translate(-20666.240234375,-14075.0078125) " id="CorelCorpID_0Corel-Layer"/>
   <g stroke="null" id="_2459335244144">
    <path stroke="null" id="svg_1" d="m6212.9123,9745.656959l390.981594,-390.981594l17.995347,-13.300472l-36.282239,36.272186c-249.029469,361.585843 -672.664073,3101.895221 940.995814,1653.390398c166.069912,-181.250345 348.496489,-397.234726 548.697242,-652.195623c490.358136,-624.448607 1604.933652,-1935.867085 1948.142124,-2902.388144c62.129188,-258.41922 102.6338,-443.077622 102.6338,-506.131711l390.971541,-390.981594c0,151.563048 -37.468525,322.649541 -102.623746,506.131711c-294.560714,1225.111184 -1078.263118,4117.958777 -372.222199,3684.451865c644.967324,-770.120441 1518.304653,-1703.908063 1888.837903,-2750.704456c56.408879,-476.846545 132.843866,-1074.271971 163.96878,-1105.406938l390.981594,-390.981594c8.877034,-8.866981 14.06452,28.269786 14.06452,127.324622c0.010053,335.276444 -66.150495,661.615533 -177.993087,977.690238c-37.357939,315.763053 -65.969536,578.786669 -66.84417,589.483345c-23.66539,289.584347 -404.965688,2119.188403 -385.412085,2408.320353c59.294167,-62.983716 118.306842,-123.413902 176.786695,-181.903807l390.981594,-390.981594c109.771619,-109.761566 217.723596,-212.727123 322.418316,-313.159257c488.558601,-527.726128 836.331255,-1139.105488 836.331255,-2441.496133c0,-2329.542955 -4349.626255,-3022.253242 -6123.012444,-2407.928275c-920.939547,319.040418 -1634.198712,712.505169 -2192.637569,1207.286742c-744.092533,840.815012 -1153.833523,1936.751772 -1420.82818,3385.538087c-217.713543,1181.379474 440.785478,4249.274547 2275.386007,4249.274547c3079.938886,0.010053 4757.356592,-868.360963 7111.479783,-2714.462429c126.952652,-99.5575 259.072682,-214.034048 394.590717,-341.047019c199.778515,-211.510678 403.095781,-444.002523 604.85479,-690.649368c62.78265,-260.309234 125.303916,-474.232696 152.457789,-546.173872c452.075296,-1197.6155 1252.39575,-4654.883644 1779.659427,-5231.65966l71.790377,-75.278861l390.971541,-390.971541c990.980656,-990.980656 311.239083,1804.571422 249.944316,2013.749742c-255.775211,872.925146 -912.9472,2033.474251 -1669.505784,3079.215051c1143.750097,-842.765346 977.800824,956.447685 167.527636,1766.720873l-390.981594,390.981594c-221.101494,221.101494 -490.15707,368.542703 -793.655138,368.542703c-224.298433,0 -110.17375,-720.035066 20.377972,-1284.435511c-131.175024,145.963379 -261.545786,284.044997 -389.714883,412.214094l-390.981594,390.981594c-203.538437,203.538437 -401.517418,382.295572 -588.317166,528.781721c-2354.123192,1846.11152 -4031.540897,2714.482536 -7111.46973,2714.472483c-1834.610583,0 -2493.109604,-3067.895073 -2275.396061,-4249.274547c288.759979,-1566.871985 744.444398,-2721.077479 1609.497836,-3586.14097l390.981594,-390.981594c585.632944,-585.622891 1358.869897,-1038.743726 2394.949508,-1397.6554c1773.376136,-614.33502 6123.012444,78.375267 6123.012444,2407.918222c0,1443.990906 -427.485006,2038.551151 -1000.370407,2611.436553l-390.981594,390.981594c-106.464094,106.464094 -217.944768,212.174193 -332.632435,322.438422c-120.136537,127.515635 -241.489519,265.587199 -362.209145,419.583138l-5.438817,6.212919l-390.971541,390.981594c-142.645801,142.635748 333.014459,-2115.941198 359.534976,-2440.450593c0.251332,-3.106459 2.865181,-27.576111 7.308725,-68.191308c-442.665438,710.856434 -1036.10977,1353.441133 -1496.1372,1908.089909c-58.881983,70.996169 -112.837865,130.772893 -162.159192,180.094219l-388.65929,388.65929l-2.312251,2.322305c-848.696773,848.68672 -325.544882,-1399.836959 39.479178,-2884.34253c-467.688019,719.110166 -1069.516776,1437.8182 -1395.473841,1852.917582c-285.633413,363.747295 -535.085119,648.194422 -752.476958,865.586261l-390.981594,390.981594c-1876.814197,1876.814197 -1363.645199,-1245.036759 -1109.910801,-1498.771156zm8737.987746,-547.128932c-12.55653,34.754143 -25.967588,70.614145 -42.927449,107.429208l-191.816328,191.806275c-26.319452,32.723383 -52.669064,65.215541 -79.038783,97.456367c-138.534015,574.473818 -278.264368,1375.045603 -41.771323,1375.045603c215.73305,0 414.053841,-74.514813 590.116701,-197.003814c598.561445,-812.585439 684.446502,-2129.73428 -160.048006,-1672.803256c-24.761196,32.854076 -49.612871,65.537245 -74.514813,98.069616zm-244.334593,125.635674l189.433704,-189.433704c728.801515,-1021.55264 1355.632745,-2140.330423 1603.998699,-2987.961549c56.127388,-191.534837 630.52078,-2551.066686 -33.75887,-2186.937367c-523.956153,862.007298 -1253.119585,3967.159777 -1676.643604,5089.144552c-16.839222,44.636504 -47.320726,144.023098 -83.02993,275.188069z" class="fil0"/>
   </g>
   <path stroke="null" id="svg_2" d="m6426.393418,9536.860663c-273.127149,125.173223 -967.154414,4226.835656 1844.392411,646.49542c583.441332,-742.996727 2050.775923,-2458.596739 2050.775923,-3408.529908c0,398.873409 -1615.037185,5645.311371 -141.640474,3868.868989c839.980591,-1012.745979 2124.647327,-2318.675374 2124.647327,-3798.053778c0,-676.615007 -242.273674,1535.716911 -244.84731,1567.173583c-26.832169,328.440222 -513.701821,2637.806271 -354.106212,2434.237674c1020.899178,-1302.209686 2086.193582,-1464.941914 2086.193582,-3744.429654c0,-2329.542955 -4349.626255,-3022.263295 -6123.00239,-2407.928275c-2566.55877,889.120958 -3520.211647,2356.194165 -4004.447343,4983.806423c-217.713543,1181.369421 440.775424,4249.274547 2275.386007,4249.274547c3079.938886,0 4757.346538,-868.360963 7111.479783,-2714.472483c1309.709423,-1027.081937 3169.211894,-3640.770421 3644.258905,-5262.030579c62.722331,-214.034048 772.955462,-3135.985848 -321.72464,-1938.480934c-527.263678,576.786069 -1327.574078,4034.044161 -1779.649374,5231.669713c-87.081396,230.712417 -537.930193,1921.289848 -194.249219,1921.289848c1447.489443,0 2111.678613,-3353.91051 525.092172,-2056.858149c-133.19573,108.896985 -143.450062,242.726071 -212.465738,392.549904" class="fil1"/>
   <g stroke="null" id="_2459335243808">
    <path stroke="null" id="svg_3" d="m16536.863184,10084.994923c90.187855,-81.46162 475.449141,-328.379903 804.583039,-602.522432c212.606484,-288.458381 170.724575,-533.39617 -558.157366,-564.57135c-24.419385,-1.035486 -49.472125,2.734489 -74.997369,10.907794c-254.186795,404.66409 -466.964184,1027.604707 -465.918644,1450.676329l294.490341,-294.490341zm3266.235971,1198.580613l-9.902468,6.836221l20.659463,-20.669516c105.418554,-161.44541 307.891345,-1190.47768 377.952561,-1360.347727c287.050923,-695.937386 152.246671,-1141.769603 -228.450432,-905.346931c-74.806357,98.562227 -153.825033,214.597031 -236.493045,349.461603c-1.186285,1.950334 -2.392677,4.071573 -3.589016,6.082226c-27.214193,199.135106 -73.077195,440.111909 -141.097598,728.439597c-138.131884,585.492198 -211.681583,822.678919 -239.056628,850.064017l-390.981594,390.981594c-69.30722,69.30722 157.011919,-1204.984544 380.224599,-1578.6142c97.566953,-713.480336 -44.817463,-888.266431 -271.156709,-764.219173c-125.153117,169.035626 -251.241188,375.630256 -362.983247,596.2693c-156.589682,640.644419 -360.40961,1391.784292 -405.890589,1437.265271l-390.981594,390.981594c-21.11186,21.11186 -8.102933,-109.831938 59.595765,-474.443814c56.428986,-303.940412 186.729375,-647.711866 346.304877,-962.80135c51.613471,-211.17892 98.099776,-410.364293 132.079818,-568.281006c-42.987768,47.27046 -87.503633,93.595913 -133.024825,139.107051l-390.981594,390.981594c-201.196026,201.196026 -421.623951,386.56821 -613.018042,566.964028c-2151.720774,2027.884635 -1456.366477,-771.759123 -783.069048,-1445.056552l390.981594,-390.981594c90.750838,-90.750838 181.109599,-142.866973 264.049049,-139.328223c879.117958,37.609271 758.870835,386.156026 398.049041,746.977821l-390.981594,390.981594c-288.478487,288.478487 -730.731742,584.808576 -938.965055,736.341465c10.736889,530.892907 374.725462,724.337864 1450.917607,-289.916104c123.383742,-116.296189 258.841457,-234.653298 393.424538,-357.986773c182.949347,-208.323792 333.466856,-435.105382 405.377872,-690.739847l390.981594,-390.981594c19.654136,0.010053 -27.535897,240.082062 -102.885131,566.672483c33.11546,-38.916195 65.848897,-74.675665 97.888658,-106.715426l390.981594,-390.981594c301.678427,-301.678427 542.152565,-278.02309 473.760192,451.482153c11.380298,-12.013654 22.61985,-23.595017 33.718656,-34.693823l390.981594,-390.981594c517.773394,-517.783447 745.288872,-48.064668 415.270287,752.044667c-72.524266,175.841687 -286.950391,1272.411804 -388.709556,1374.181022l-390.981594,390.971541z" class="fil2"/>
   </g>
   <path stroke="null" id="svg_4" d="m16341.377414,10280.480693c229.325066,-207.137507 2366.589243,-1484.10344 637.397214,-1558.065323c-698.149105,-29.858202 -1922.737519,3885.617731 519.019999,1584.374722c436.281614,-411.178607 1023.392388,-848.234323 1189.794058,-1439.698161c76.35456,0 -855.64358,3621.508362 -531.154292,1873.727844c249.230534,-1342.422753 1939.08413,-3461.751902 1230.258457,-457.302995c-489.543821,2074.994243 -167.84934,-224.630191 144.686614,-734.521823c809.036636,-1319.933595 1268.792628,-836.06987 855.925072,164.913787c-74.977263,181.773115 -301.577894,1347.419226 -398.622077,1381.017244" class="fil1"/>
  </g>
 </g>
</svg>