<?xml version="1.0" encoding="UTF-8"?>
<!DOCTYPE svg PUBLIC "-//W3C//DTD SVG 1.1//EN" "http://www.w3.org/Graphics/SVG/1.1/DTD/svg11.dtd">
<!-- Creator: CorelDRAW 2020 (64-Bit Оценочная версия) -->
<svg xmlns="http://www.w3.org/2000/svg" xml:space="preserve" width="136mm" height="103mm" version="1.1" style="shape-rendering:geometricPrecision; text-rendering:geometricPrecision; image-rendering:optimizeQuality; fill-rule:evenodd; clip-rule:evenodd"
viewBox="0 0 13600 10300"
 xmlns:xlink="http://www.w3.org/1999/xlink"
 xmlns:xodm="http://www.corel.com/coreldraw/odm/2003">
 <defs>
  <style type="text/css">
   <![CDATA[
    .str0 {stroke:black;stroke-width:33.02;stroke-miterlimit:2.61313}
    .fil1 {fill:none}
    .fil2 {fill:#2B2A29}
    .fil0 {fill:#E31E24}
   ]]>
  </style>
 </defs>
 <g id="Слой_x0020_1">
  <metadata id="CorelCorpID_0Corel-Layer"/>
  <g id="_2459362331440">
   <path class="fil0" d="M-3276.93 8374.87l671.75 -671.75c22.46,-22.46 46.59,-27.7 71.79,-11.18l-137.59 137.59c-130.78,390.2 -142.55,1421.38 182.91,1424.07 1145.35,-1481.19 2450.79,-3513.78 3201.75,-5090.52 92.2,-193.58 1088.93,-1893.09 1209.81,-2013.97l671.76 -671.75c42.11,-42.12 -22.07,107.37 -267.85,578.89 -618.43,1186.44 -1446.1,3967.12 -1180.53,4264 257.74,-408.86 594.29,-1015.93 1025.04,-1869.35 286.37,-567.36 737.68,-1161.96 964.31,-1795.14 85.98,-317.05 139.68,-575.64 139.68,-737.9l671.75 -671.75c0,251.93 -53.71,497.69 -139.68,737.9 -349.42,1288.44 -1234.01,3546.07 -1234.01,4263.77l-671.75 671.75c0,-493.51 418.35,-1715.31 793.27,-2849.29 -646.54,1259.09 -1062.1,1916.48 -1307.17,2161.55l-671.75 671.75c-599.14,599.14 -179.62,-1265.2 373.47,-2822.15 -860.98,1646.22 -2175.61,3616.25 -3262.13,4949.01 -28.99,35.58 -56.73,66.46 -83.23,92.97l-670.51 670.5 -1.24 1.25c-628.01,628.01 -567.14,-1202.96 -349.85,-1420.25z"/>
  </g>
  <path class="fil1" d="M-2869.26 8027.81c-279.45,-182.97 -425.82,2303.97 361.29,1338.47 1219.94,-1496.44 2727.46,-3796.26 3557.53,-5539.07 124.32,-261.02 1893.2,-3260.02 941.96,-1435.09 -964.02,1849.46 -2437.14,7574.29 516.27,1722.91 395.01,-782.59 1103.99,-1617.01 1103.99,-2533.04 0,821.68 -1373.69,4107.38 -1373.69,5001.67"/>
  <g id="_2459362331488">
   <path class="fil0" d="M1831.77 7025.2c485.13,-1247.52 3445.94,-4259.64 2987.91,-6307.93 -375.09,-1677.39 -3724.77,-1545.14 -4790.21,-1313.69 -1822.1,395.85 -2863.6,847.71 -3565.72,1402.17 -336.18,421.41 -596.75,895.19 -908.61,1434.77 -368.58,637.71 -1076.63,2276.34 -1222.51,3149.99 -325.81,1951.23 302.32,5195.61 2909.34,5742.25 2324.04,487.3 3021.51,-180.23 4299.33,-1426.98 377.28,-526.93 2064.73,-3078.51 2122.07,-3244.15l671.75 -671.75c-62.8,181.42 -2081.75,3226.04 -2191.97,3336.25l-671.75 671.75 -0.92 0.89c-1710.39,1607.05 -2238.31,2563.9 -4900.26,2005.74 -2607.02,-546.63 -3235.15,-3791.02 -2909.35,-5742.25 145.89,-873.65 853.93,-2512.28 1222.52,-3149.99 403.69,-698.45 721.38,-1286.67 1228.46,-1793.75l671.75 -671.75c701.12,-701.12 1764.34,-1247.14 3917.62,-1714.94 1065.45,-231.46 4415.12,-363.7 4790.22,1313.69 458.02,2048.29 -2502.79,5060.41 -2987.92,6307.93l-671.75 671.75z"/>
  </g>
  <path class="fil1" d="M2167.64 6689.33c485.14,-1247.52 3445.94,-4259.65 2987.92,-6307.94 -375.09,-1677.38 -3724.77,-1545.14 -4790.22,-1313.68 -3710.61,806.13 -4184.21,1844.51 -5146.07,3508.68 -368.59,637.72 -1076.64,2276.34 -1222.52,3149.99 -325.81,1951.24 302.32,5195.62 2909.34,5742.26 2661.96,558.15 3189.88,-398.69 4900.26,-2005.74 99.36,-93.35 2129.91,-3155.2 2192.89,-3337.14"/>
  <g id="_2459362331056">
   <path class="fil0" d="M3557.7 6743.43c153.18,-374.96 754.32,-1073.05 1427.11,-1906.66 430.37,-1705.71 908.97,-4543.07 1653.56,-5287.66l671.75 -671.76c37.82,-37.82 76.33,-70.25 115.56,-96.85 1228.64,-833.16 420.17,1823.64 290.84,2183.84 -377.44,1051.25 -1268.32,2219.8 -2059.96,3200.68 -11.71,46.39 -23.38,91.94 -35.01,136.58l76.78 -76.78c380.48,-380.49 869.66,-53.76 855.84,297.03 -22.43,569.01 -284.78,1045.98 -573.84,1335.04l-671.75 671.75c-507.8,507.8 -1098.03,435.67 -614.68,-736.23 59.97,-145.43 119.93,-329.27 180.48,-541.79l-119.11 119.11c22.96,-66.92 47.8,-127.74 74.14,-182.88 -294.3,372.38 -515.39,677.82 -599.96,884.83l-671.75 671.75zm1942.01 -2006.91c-44.84,146.6 -89.44,275.95 -134.06,384.14 -368.59,893.65 -112.86,1147.7 254.53,992.82 144.75,-257.43 248.5,-571.38 262.24,-919.88 8.25,-209.35 -162.68,-410.08 -382.71,-457.08zm224.69 -847.57c550.76,-739.64 1058.83,-1524.43 1320.37,-2252.86 119.25,-332.13 815.91,-2616.87 -39.46,-2317.73 -541.01,1028.6 -930.26,3110.85 -1280.91,4570.59z"/>
  </g>
  <path class="fil1" d="M3893.57 6407.55c333.46,-816.17 2788.86,-3162.66 3487.08,-5107.34 129.32,-360.19 937.79,-3016.99 -290.84,-2183.83 -988.36,670.23 -1522.81,5037.59 -2060.04,6340.15 -758.48,1838.99 1126.7,969.8 1188.52,-598.8 17.54,-445.06 -774.56,-851.37 -1127.14,176.12"/>
  <g id="_2459362329280">
   <path class="fil0" d="M6906.4 5543.33c236.97,-81.31 436.89,-173.19 603.98,-270.54 153.68,-353.19 -8.04,-628.98 -281.79,-579.27 -29.53,56.15 -58.82,116.27 -87.72,180.56 -129.85,288.91 -215.93,519.61 -265.47,700.25l31 -31zm3697.11 -1057.7c621.73,-621.73 1326.44,-226.39 573.93,961.09 -610.22,962.96 -155.19,676.7 343.18,448.84l-671.75 671.75c-498.37,227.86 -953.4,514.12 -343.18,-448.84 606.9,-957.71 265.92,-1400.01 -214.91,-1209.22 -212.85,368.94 -652.52,1210.21 -681.95,1239.64l-671.76 671.75c-12.49,12.49 48.97,-121.38 233.17,-499.9 711.1,-1461.35 341.54,-1490.94 -73.25,-1231.99 -189.38,278.28 -329.58,494.1 -431.3,658.01 -62.7,206.31 -178.26,392.92 -221,435.66l-671.75 671.75c-43.04,43.03 -12.17,-59.91 221,-435.66 20.42,-67.15 35.24,-136.39 40.1,-203.44 16.15,-222.28 300.57,-849.19 393.22,-1107.39l-27.01 27.12 -671.75 671.75c-941.83,941.83 -2166.9,1758.36 -1259.38,-260.72 134.6,-299.45 277.63,-508.68 414.5,-645.55l671.75 -671.75c558.61,-558.61 1014.47,88.42 374.48,728.41l-671.75 671.75c-109.99,109.99 -252.39,219.76 -432.15,323.18 49.63,403.87 639.66,38.4 1231.09,-491.66 128.28,-142.94 242.95,-281.02 335.27,-404.47 17.11,-22.89 30.42,-38.94 40.36,-48.88l671.76 -671.75c117.21,-117.21 -235.09,616.13 -358.38,1025.7l618.09 -618.09c370.08,-370.08 1155.25,-882.42 779.2,203.08l460.17 -460.17z"/>
  </g>
  <path class="fil1" d="M6570.52 5879.2c2312.28,-793.33 1099.23,-2593.15 234.48,-669.24 -1157.74,2575.78 1155.22,536.7 1923.19,-490.1 255.19,-341.21 -334.81,836.34 -358.27,1159.34 -42.83,589.77 -854.89,1349.75 516.26,-637.03 254.15,-368.26 1712.45,-1502.51 619.93,742.7 -648.49,1332.68 224.28,-367.33 490.11,-810.13 646.28,-1076.54 1711.81,-759.46 845.35,607.85 -610.23,962.96 -155.2,676.7 343.17,448.84"/>
  <g id="_2459362319920">
   <g>
    <path class="fil2" d="M-1455.57 4695.08c-43.18,5.08 -17.78,35.56 -2.54,50.8 2.54,2.54 2.54,5.08 5.08,7.62 17.78,10.16 30.48,15.24 50.8,15.24 25.4,0 27.94,15.24 45.72,-2.54 15.24,-17.78 2.54,-10.16 7.62,-33.02 5.08,-20.32 38.1,-22.86 2.54,-27.94 -17.78,-5.08 -30.48,-2.54 -40.64,-2.54 -2.54,0 -5.08,0 -7.62,0 -5.08,0 -10.16,0 -10.16,-5.08 0,-2.54 0,-5.08 -2.54,-5.08 -2.54,-7.62 -10.16,-12.7 -17.78,-10.16 0,0 -2.54,2.54 -2.54,5.08 -5.08,2.54 -12.7,5.08 -20.32,5.08 -5.08,2.54 -7.62,2.54 -7.62,2.54z"/>
    <path class="fil2" d="M4747.11 5446.92c-43.18,5.08 -15.24,35.56 -2.54,53.34 2.54,0 5.08,2.54 7.62,5.08 15.24,10.16 27.94,15.24 50.8,15.24 25.4,0 27.94,17.78 43.18,-2.54 15.24,-17.78 2.54,-10.16 7.62,-30.48 5.08,-22.86 40.64,-22.86 5.08,-30.48 -17.78,-5.08 -33.02,-2.54 -43.18,-2.54 -2.54,0 -5.08,0 -7.62,0 -5.08,2.54 -7.62,0 -10.16,-5.08 0,-2.54 0,-2.54 0,-5.08 -5.08,-7.62 -12.7,-12.7 -17.78,-10.16 -2.54,2.54 -5.08,2.54 -5.08,5.08 -5.08,2.54 -12.7,5.08 -17.78,7.62 -7.62,0 -10.16,0 -10.16,0z"/>
    <path class="fil2" d="M5283.05 5401.2c-63.5,-10.16 -50.8,38.1 -45.72,66.04 2.54,2.54 5.08,5.08 5.08,7.62 12.7,22.86 25.4,33.02 53.34,40.64 33.02,10.16 25.4,30.48 58.42,12.7 35.56,-17.78 12.7,-12.7 35.56,-38.1 22.86,-25.4 68.58,-15.24 27.94,-38.1 -20.32,-12.7 -40.64,-15.24 -53.34,-17.78 -2.54,0 -7.62,0 -10.16,0 -5.08,-2.54 -10.16,-7.62 -7.62,-12.7 0,-2.54 0,-5.08 0,-7.62 2.54,-10.16 -5.08,-20.32 -15.24,-17.78 -2.54,0 -5.08,0 -7.62,2.54 -10.16,5.08 -20.32,5.08 -30.48,2.54 -7.62,0 -10.16,0 -10.16,0z"/>
    <path class="fil2" d="M12072.47 2894.22c-45.72,7.62 -17.78,35.56 -5.08,53.34 2.54,2.54 5.08,2.54 7.62,5.08 15.24,12.7 27.94,15.24 50.8,17.78 25.4,0 27.94,15.24 43.18,-2.54 15.24,-20.32 2.54,-12.7 10.16,-33.02 5.08,-20.32 38.1,-22.86 2.54,-30.48 -17.78,-2.54 -33.02,-2.54 -43.18,0 -2.54,0 -5.08,0 -5.08,0 -5.08,0 -10.16,-2.54 -10.16,-5.08 -2.54,-2.54 -2.54,-5.08 -2.54,-7.62 -5.08,-7.62 -12.7,-10.16 -17.78,-7.62 -2.54,0 -2.54,2.54 -5.08,2.54 -5.08,5.08 -10.16,7.62 -17.78,7.62 -5.08,0 -7.62,0 -7.62,0z"/>
    <path class="fil2" d="M10012.53 3305.7c-60.96,-7.62 -48.26,40.64 -43.18,66.04 0,5.08 2.54,7.62 5.08,10.16 12.7,20.32 22.86,30.48 53.34,40.64 33.02,7.62 22.86,30.48 58.42,12.7 33.02,-20.32 12.7,-12.7 35.56,-38.1 22.86,-27.94 66.04,-17.78 27.94,-38.1 -20.32,-12.7 -40.64,-15.24 -55.88,-17.78 -2.54,0 -5.08,0 -7.62,-2.54 -7.62,0 -12.7,-5.08 -10.16,-10.16 2.54,-2.54 2.54,-5.08 2.54,-7.62 0,-10.16 -5.08,-20.32 -15.24,-17.78 -2.54,0 -5.08,0 -10.16,2.54 -10.16,2.54 -17.78,2.54 -27.94,2.54 -7.62,0 -12.7,-2.54 -12.7,-2.54z"/>
    <path class="fil2" d="M3403.45 5960c0,0 1369.06,-840.74 1833.88,-911.86 462.28,-68.58 -1793.24,635 -2075.18,772.16l241.3 139.7z"/>
    <path class="fil2" d="M6326.99 4636.66c-43.18,-63.5 -241.3,-60.96 -447.04,2.54 -203.2,66.04 -335.28,167.64 -294.64,231.14 43.18,63.5 241.3,60.96 447.04,-5.08 203.2,-63.5 335.28,-167.64 294.64,-228.6z"/>
    <path class="fil2" d="M6913.73 4522.36c-17.78,-25.4 -99.06,-25.4 -187.96,2.54 -88.9,27.94 -144.78,71.12 -127,99.06 17.78,25.4 104.14,25.4 193.04,-2.54 83.82,-27.94 142.24,-71.12 121.92,-99.06z"/>
    <path class="fil2" d="M9570.57 3409.84c-30.48,-43.18 -170.18,-43.18 -314.96,2.54 -144.78,48.26 -238.76,119.38 -208.28,165.1 27.94,43.18 170.18,43.18 314.96,-5.08 144.78,-45.72 236.22,-116.84 208.28,-162.56z"/>
    <path class="fil2" d="M8635.85 3173.62c-17.78,-27.94 -104.14,-25.4 -190.5,2.54 -88.9,27.94 -144.78,71.12 -127,99.06 17.78,25.4 104.14,25.4 190.5,-2.54 88.9,-27.94 144.78,-73.66 127,-99.06z"/>
    <path class="fil2" d="M3360.27 8662.56c0,-154.94 182.88,-279.4 406.4,-279.4 226.06,0 408.94,124.46 408.94,279.4 0,154.94 -182.88,281.94 -408.94,281.94 -223.52,0 -406.4,-127 -406.4,-281.94z"/>
    <path class="fil2" d="M12608.41 6114.94c-434.34,-274.32 -642.62,-607.06 -462.28,-741.68 180.34,-137.16 680.72,-22.86 1115.06,251.46 436.88,276.86 645.16,609.6 464.82,744.22 -180.34,134.62 -680.72,20.32 -1117.6,-254z"/>
    <path class="fil2" d="M12671.91 6254.64c-243.84,-297.18 -332.74,-576.58 -200.66,-627.38 132.08,-50.8 436.88,144.78 678.18,439.42 243.84,297.18 332.74,576.58 200.66,627.38 -132.08,53.34 -436.88,-144.78 -678.18,-439.42z"/>
    <path class="fil2" d="M4470.25 8588.9c0,-45.72 55.88,-81.28 121.92,-81.28 66.04,0 119.38,35.56 119.38,81.28 0,45.72 -53.34,83.82 -119.38,83.82 -66.04,0 -121.92,-38.1 -121.92,-83.82z"/>
    <path class="fil2" d="M13588.85 6762.64c0,-45.72 53.34,-83.82 121.92,-83.82 66.04,0 119.38,38.1 119.38,83.82 0,45.72 -53.34,83.82 -119.38,83.82 -68.58,0 -121.92,-38.1 -121.92,-83.82z"/>
    <path class="fil2" d="M12019.13 5266.58c0,-33.02 40.64,-58.42 88.9,-58.42 50.8,0 91.44,25.4 91.44,58.42 0,35.56 -40.64,63.5 -91.44,63.5 -48.26,0 -88.9,-27.94 -88.9,-63.5z"/>
    <path class="fil2" d="M12138.51 5246.26c0,-30.48 40.64,-58.42 91.44,-58.42 50.8,0 91.44,27.94 91.44,58.42 0,35.56 -40.64,63.5 -91.44,63.5 -50.8,0 -91.44,-27.94 -91.44,-63.5z"/>
    <path class="fil2" d="M3903.83 6950.6c0,0 995.68,-279.4 2037.08,-154.94 1038.86,124.46 726.44,-124.46 726.44,-124.46 0,0 -815.34,0 -952.5,0 -134.62,0 -134.62,-157.48 180.34,-157.48 317.5,0 680.72,-154.94 906.78,-185.42 223.52,-33.02 1628.14,-497.84 767.08,-312.42 -858.52,187.96 -2171.7,248.92 -2532.38,406.4 -363.22,154.94 -1132.84,528.32 -1132.84,528.32z"/>
    <path class="fil2" d="M3858.11 8502.54c0,0 858.52,-528.32 1148.08,-571.5 289.56,-43.18 -1122.68,398.78 -1300.48,485.14l152.4 86.36z"/>
    <path class="fil2" d="M4030.83 6696.6c0,0 477.52,-208.28 640.08,-226.06 160.02,-17.78 -624.84,157.48 -723.9,193.04l83.82 33.02z"/>
    <path class="fil1 str0" d="M914.25 9160.4c0,0 -3172.46,157.48 -2400.3,-932.18 769.62,-1092.2 180.34,-406.4 43.18,-561.34 -134.62,-154.94 -360.68,-497.84 -360.68,-779.78 0,-279.4 -3081.02,-5384.8 45.72,-3703.32 3124.2,1681.48 3759.2,2303.78 5252.72,1775.46 1496.06,-528.32 2900.68,-1493.52 6611.62,-373.38 3713.48,1120.14 6159.5,4358.64 5933.44,2425.7 -226.06,-1927.86 2898.14,-2735.58 -1493.52,-3172.46 -4394.2,-436.88 -5346.7,1059.18 -6977.38,2176.78 -1628.14,1120.14 -4706.62,1028.7 -5567.68,995.68"/>
    <path class="fil1 str0" d="M-58.57 7075.06c0,0 -4589.78,-624.84 -3352.8,-541.02 1239.52,83.82 1871.98,-228.6 2024.38,-373.38 149.86,-144.78 965.2,-289.56 965.2,-289.56 0,0 485.14,144.78 -754.38,434.34 -1236.98,292.1 -1600.2,769.62 1026.16,457.2"/>
    <path class="fil2" d="M772.01 8903.86c-45.72,5.08 -17.78,33.02 -5.08,50.8 2.54,2.54 5.08,5.08 7.62,5.08 15.24,12.7 27.94,17.78 50.8,17.78 25.4,0 27.94,15.24 43.18,-2.54 15.24,-17.78 2.54,-10.16 7.62,-33.02 5.08,-20.32 40.64,-22.86 5.08,-30.48 -17.78,-2.54 -33.02,0 -43.18,0 -2.54,0 -5.08,0 -7.62,0 -5.08,0 -7.62,-2.54 -10.16,-5.08 0,-2.54 0,-5.08 0,-5.08 -5.08,-7.62 -12.7,-12.7 -17.78,-10.16 -2.54,0 -2.54,2.54 -5.08,2.54 -5.08,5.08 -12.7,7.62 -17.78,7.62 -5.08,2.54 -7.62,2.54 -7.62,2.54z"/>
    <path class="fil2" d="M-716.43 9099.44c0,0 1041.4,218.44 1493.52,342.9 454.66,124.46 635,154.94 815.34,30.48 182.88,-124.46 137.16,-124.46 -180.34,-124.46 -317.5,0 -589.28,60.96 -543.56,-63.5 45.72,-124.46 45.72,-124.46 45.72,-124.46l-1630.68 -60.96z"/>
    <path class="fil2" d="M4764.89 4461.4c0,0 2849.88,-497.84 3891.28,-218.44 1041.4,281.94 -1945.64,-777.24 -3891.28,218.44z"/>
    <path class="fil2" d="M4894.43 4397.9c0,0 391.16,-642.62 934.72,-477.52 543.56,167.64 3078.48,-767.08 2928.62,-518.16l-3863.34 995.68z"/>
    <path class="fil2" d="M5105.25 4232.8c0,0 -1993.9,787.4 -2385.06,850.9 -393.7,60.96 -271.78,144.78 -271.78,144.78l2928.62 -871.22 -271.78 -124.46z"/>
    <path class="fil2" d="M16499.69 4184.54c0,0 434.34,111.76 401.32,317.5l-401.32 -317.5z"/>
    <path class="fil2" d="M17528.39 2345.58c0,0 -378.46,-457.2 -279.4,-459.74 101.6,-5.08 373.38,111.76 347.98,304.8 -25.4,195.58 -58.42,294.64 -58.42,294.64l-10.16 -139.7z"/>
    <path class="fil2" d="M27.79 7189.36c0,0 -378.46,-457.2 -276.86,-459.74 99.06,-5.08 370.84,109.22 345.44,304.8 -25.4,195.58 -58.42,294.64 -58.42,294.64l-10.16 -139.7z"/>
    <line class="fil1 str0" x1="2001.37" y1="7011.56" x2="-58.57" y2= "7075.06" />
   </g>
  </g>
  <path class="fil1" d="M6981.47 5719c685.91,-163.1 727.41,-176.12 1408.92,-176.12"/>
 </g>
</svg>
